<?xml version="1.0" encoding="UTF-8"?> <svg xmlns="http://www.w3.org/2000/svg" viewBox="0 0 800 527.5"><g id="Layer_2" data-name="Layer 2"><g id="Layer_1-2" data-name="Layer 1"><path d="M475,297.5c-20,0-37.5,12.5-47.5,30h-295c-50,0-90-42.5-90-92.5s40-92.5,90-92.5H175c0-10,5-20,7.5-30,2.5-2.5,2.5-7.5,5-10A119,119,0,0,1,292.5,40c40,0,75,20,97.5,50,12.5-5,25-10,40-12.5C402.5,30,352.5,0,292.5,0c-67.5,0-125,42.5-150,102.5h-10C60,102.5,0,162.5,0,237.5S60,370,132.5,370H430c7.5,17.5,25,30,47.5,30,27.5,0,50-22.5,50-52.5S505,297.5,475,297.5ZM640,195C610,135,547.5,92.5,477.5,92.5c-87.5,0-160,62.5-177.5,145-42.5,5-80,27.5-102.5,60H415c15-20,37.5-30,62.5-30,45,0,80,37.5,80,82.5s-37.5,82.5-80,82.5c-25,0-47.5-12.5-62.5-30H172.5c10,70,70,125,140,125h325c90,0,162.5-72.5,162.5-165S727.5,197.5,640,195Z"></path></g></g></svg> 