<?xml version="1.0" encoding="UTF-8"?> <svg xmlns="http://www.w3.org/2000/svg" viewBox="0 0 32.3 33.86"><g id="Layer_2" data-name="Layer 2"><g id="Layer_1-2" data-name="Layer 1"><path d="M10.3,27.16a2.11,2.11,0,0,1-2.1,2.1,2.05,2.05,0,0,1-2.1-2.1v-9a2.11,2.11,0,0,1,2.1-2.1,2.05,2.05,0,0,1,2.1,2.1Z"></path><path d="M16.3,29.56a2.11,2.11,0,0,1-2.1,2.1,2,2,0,0,1-2-2.1V15.86a2.11,2.11,0,0,1,2.1-2.1,2.05,2.05,0,0,1,2.1,2.1v13.7Z"></path><path d="M4.2,25.16a2.11,2.11,0,0,1-2.1,2.1A2.05,2.05,0,0,1,0,25.16v-4.9a2.11,2.11,0,0,1,2.1-2.1,2.11,2.11,0,0,1,2.1,2.1Z"></path><path d="M22.3,31.76a2.05,2.05,0,1,1-4.1,0V13.56a2.1,2.1,0,1,1,4.2,0v18.2Z"></path><path d="M28.9,30.86a4.25,4.25,0,0,1-1.1-.2l-2.5-.8a.79.79,0,1,1,.5-1.5l2.6.8a1.61,1.61,0,0,0,1.6-.3,1.62,1.62,0,0,0,.7-1.4V10.76a1.74,1.74,0,0,0-1.2-1.7L5,1.66a1.84,1.84,0,0,0-1.6.2,2.13,2.13,0,0,0-.7,1.5v11.5a.79.79,0,0,1-.8.8.79.79,0,0,1-.8-.8V3.36A3.19,3.19,0,0,1,2.5.66a3.26,3.26,0,0,1,3-.5l24.4,7.4a3.45,3.45,0,0,1,2.4,3.3v16.7a3.5,3.5,0,0,1-1.4,2.8,6.53,6.53,0,0,1-2,.5"></path></g></g></svg> 