<svg xmlns="http://www.w3.org/2000/svg" viewBox="0 0 1878.74 1878.74"><defs><style>.cls-1{fill:#fff;}</style></defs><g id="Layer_2" data-name="Layer 2"><g id="Layer_2-2" data-name="Layer 2"><g id="Layer_1-2" data-name="Layer 1"><g id="white"><polygon class="cls-1" points="494.62 837.85 342.15 837.85 342.15 858.44 407.9 858.44 407.9 1039.09 428.86 1039.09 428.86 858.44 494.62 858.44 494.62 837.85"></polygon><path class="cls-1" d="M683.3,837.85A100.17,100.17,0,1,0,783.47,938,100.17,100.17,0,0,0,683.3,837.85Zm0,180.19a80,80,0,1,1,80-80A80,80,0,0,1,683.3,1018Z"></path><polygon class="cls-1" points="1096.9 837.85 1080.7 837.85 1071.36 837.85 999.59 1005.85 925.16 837.85 916.19 837.85 902.28 837.85 894.93 837.85 894.93 1038.18 916.19 1038.18 916.19 870.71 987.06 1038.18 1007.29 1038.18 1080.7 874.06 1080.7 1038.18 1101.95 1038.18 1101.95 837.85 1096.9 837.85"></polygon><rect class="cls-1" x="1227.68" y="837.85" width="22.04" height="201.6"></rect><path class="cls-1" d="M1519.32,1039.45h24.57l-86.67-201.24-22.86-.35h-.78l0,0-89.22,201.56H1369l22.72-52.51H1497Zm-120.2-69.73,45.66-105.54,44.89,105.54Z"></path><path class="cls-1" d="M939.37,0C420.57,0,0,420.57,0,939.37s420.57,939.37,939.37,939.37,939.37-420.57,939.37-939.37S1458.17,0,939.37,0Zm0,1834.17c-494.19,0-894.8-400.61-894.8-894.8s400.61-894.8,894.8-894.8,894.8,400.61,894.8,894.8S1433.56,1834.17,939.37,1834.17Z"></path></g></g></g></g></svg>