<?xml version="1.0" encoding="UTF-8"?> <svg xmlns="http://www.w3.org/2000/svg" viewBox="0 0 171.9 205.06"><g id="Layer_2" data-name="Layer 2"><g id="svg2"><path id="path14" d="M110.37,179.67c.31-2,.39-144.41.09-147.52L37.82,49.46V149.87L.44,164.47l-.22-.11s-.12-.1-.13-.16A10.54,10.54,0,0,1,0,163.07Q0,102.22,0,41.44a3.68,3.68,0,0,1,1.9-1L108.63.49a5.48,5.48,0,0,1,3.71-.28q29.28,8.49,58.59,16.88l1,.32v171l-16.73,4.66q-21.25,5.85-42.49,11.71a6,6,0,0,1-4-.14q-52.48-19.4-105-38.72a4.73,4.73,0,0,1-1.95-1.15l108.58,14.89Z"></path></g></g></svg> 